<svg width="128" height="128" viewBox="0 0 128 128" fill="none" xmlns="http://www.w3.org/2000/svg">
  <defs>
    <linearGradient id="grad1" x1="0%" y1="0%" x2="100%" y2="100%">
      <stop offset="0%" style="stop-color:#6366F1;stop-opacity:1" />
      <stop offset="100%" style="stop-color:#8B5CF6;stop-opacity:1" />
    </linearGradient>
    <filter id="shadow" x="-20%" y="-20%" width="140%" height="140%">
      <feDropShadow dx="0" dy="4" stdDeviation="8" flood-color="#000000" flood-opacity="0.2"/>
    </filter>
  </defs>
  
  <rect width="128" height="128" rx="16" fill="url(#grad1)" filter="url(#shadow)"/>
  
  <!-- Main JSON structure -->
  <path d="M32 32h64v16H32V32zm0 24h48v8H32V56zm0 16h64v8H32V72zm0 16h40v8H32V88z" fill="white"/>
  
  <!-- Border -->
  <path d="M24 24h80v80H24V24zm8 8v64h64V32H32z" fill="white" fill-opacity="0.3"/>
  
  <!-- Pro badge -->
  <circle cx="96" cy="32" r="8" fill="#F59E0B"/>
  <text x="96" y="36" text-anchor="middle" fill="white" font-family="Arial, sans-serif" font-size="10" font-weight="bold">P</text>
  
  <!-- JSON content preview -->
  <path d="M40 40h16v3h-16v-3zm0 6h12v2h-12v-2zm0 4h16v2h-16v-2zm0 4h8v2h-8v-2z" fill="#6366F1" fill-opacity="0.2"/>
  
  <!-- Decorative elements -->
  <circle cx="40" cy="100" r="3" fill="white" fill-opacity="0.3"/>
  <circle cx="88" cy="100" r="3" fill="white" fill-opacity="0.3"/>
  <circle cx="64" cy="108" r="2" fill="white" fill-opacity="0.2"/>
</svg>
