<svg width="32" height="32" viewBox="0 0 32 32" fill="none" xmlns="http://www.w3.org/2000/svg">
  <defs>
    <linearGradient id="grad32" x1="0%" y1="0%" x2="100%" y2="100%">
      <stop offset="0%" style="stop-color:#6366F1;stop-opacity:1" />
      <stop offset="40%" style="stop-color:#8B5CF6;stop-opacity:1" />
      <stop offset="100%" style="stop-color:#EC4899;stop-opacity:1" />
    </linearGradient>
    <linearGradient id="accent32" x1="0%" y1="0%" x2="100%" y2="0%">
      <stop offset="0%" style="stop-color:#06FFA5;stop-opacity:0.9" />
      <stop offset="100%" style="stop-color:#00D4FF;stop-opacity:0.9" />
    </linearGradient>
    <filter id="glow32">
      <feGaussianBlur stdDeviation="1" result="coloredBlur"/>
      <feMerge>
        <feMergeNode in="coloredBlur"/>
        <feMergeNode in="SourceGraphic"/>
      </feMerge>
    </filter>
  </defs>
  
  <!-- Main container with 2026 style -->
  <rect width="32" height="32" rx="8" fill="url(#grad32)"/>
  
  <!-- Futuristic JSON structure with glow -->
  <path d="M6 6h20v4H6V6zm0 6h15v2.5H6V12zm0 4h20v2H6V16zm0 4h12v2H6v-2z" 
        fill="white" fill-opacity="0.95" filter="url(#glow32)"/>
  
  <!-- Modern accent elements -->
  <rect x="4" y="26" width="24" height="2" rx="1" fill="url(#accent32)"/>
  
  <!-- Holographic corner accents -->
  <path d="M2 8 L8 2 L6 2 L2 6 Z" fill="#06FFA5" fill-opacity="0.6"/>
  <path d="M30 24 L24 30 L26 30 L30 26 Z" fill="#00D4FF" fill-opacity="0.6"/>
  
  <!-- Neo badge with animation effect -->
  <circle cx="26" cy="6" r="3" fill="#06FFA5" filter="url(#glow32)"/>
  <circle cx="26" cy="6" r="1.8" fill="#00D4FF"/>
  <text x="26" y="8.5" text-anchor="middle" fill="white" font-family="Arial, sans-serif" 
        font-size="6" font-weight="bold">26</text>
</svg>
