<svg width="48" height="48" viewBox="0 0 48 48" fill="none" xmlns="http://www.w3.org/2000/svg">
  <defs>
    <linearGradient id="grad48" x1="0%" y1="0%" x2="100%" y2="100%">
      <stop offset="0%" style="stop-color:#6366F1;stop-opacity:1" />
      <stop offset="30%" style="stop-color:#8B5CF6;stop-opacity:1" />
      <stop offset="70%" style="stop-color:#EC4899;stop-opacity:1" />
      <stop offset="100%" style="stop-color:#F97316;stop-opacity:1" />
    </linearGradient>
    <linearGradient id="accent48" x1="0%" y1="0%" x2="100%" y2="0%">
      <stop offset="0%" style="stop-color:#06FFA5;stop-opacity:0.95" />
      <stop offset="100%" style="stop-color:#00D4FF;stop-opacity:0.95" />
    </linearGradient>
    <filter id="glow48" x="-20%" y="-20%" width="140%" height="140%">
      <feGaussianBlur stdDeviation="2" result="coloredBlur"/>
      <feMerge>
        <feMergeNode in="coloredBlur"/>
        <feMergeNode in="SourceGraphic"/>
      </feMerge>
    </filter>
    <filter id="shadow48" x="-50%" y="-50%" width="200%" height="200%">
      <feDropShadow dx="0" dy="2" stdDeviation="4" flood-color="#000000" flood-opacity="0.3"/>
    </filter>
  </defs>
  
  <!-- Main container with advanced 2026 styling -->
  <rect width="48" height="48" rx="12" fill="url(#grad48)" filter="url(#shadow48)"/>
  
  <!-- Futuristic JSON structure with enhanced glow -->
  <path d="M8 8h32v6H8V8zm0 9h24v3.5H8V17zm0 6h32v3H8v-3zm0 6h18v3H8v-3z" 
        fill="white" fill-opacity="0.96" filter="url(#glow48)"/>
  
  <!-- Modern accent elements -->
  <rect x="6" y="40" width="36" height="3" rx="1.5" fill="url(#accent48)"/>
  
  <!-- Holographic corner accents -->
  <path d="M3 12 L12 3 L9 3 L3 9 Z" fill="#06FFA5" fill-opacity="0.7"/>
  <path d="M45 36 L36 45 L39 45 L45 39 Z" fill="#00D4FF" fill-opacity="0.7"/>
  
  <!-- Data flow indicators -->
  <circle cx="12" cy="32" r="1.5" fill="#06FFA5" fill-opacity="0.8"/>
  <circle cx="20" cy="32" r="1" fill="#00D4FF" fill-opacity="0.6"/>
  <circle cx="28" cy="32" r="1.5" fill="#06FFA5" fill-opacity="0.8"/>
  
  <!-- Neo 2026 badge -->
  <circle cx="39" cy="9" r="4.5" fill="#06FFA5" filter="url(#glow48)"/>
  <circle cx="39" cy="9" r="3" fill="#00D4FF"/>
  <text x="39" y="11.5" text-anchor="middle" fill="white" font-family="Arial, sans-serif" 
        font-size="8" font-weight="bold">26</text>
</svg>
